<svg width="18" height="18" viewBox="0 0 18 18" fill="none" xmlns="http://www.w3.org/2000/svg">
<path d="M9 16.5C13.1421 16.5 16.5 13.1421 16.5 9C16.5 4.85786 13.1421 1.5 9 1.5C4.85786 1.5 1.5 4.85786 1.5 9C1.5 13.1421 4.85786 16.5 9 16.5Z" stroke="#555555" stroke-width="1.38462" stroke-linecap="round" stroke-linejoin="round"/>
<path d="M9.68856 10.5793H7.47257V9.6849H9.68856C10.1177 9.6849 10.4652 9.61654 10.731 9.47982C10.9969 9.3431 11.1906 9.15321 11.3121 8.91016C11.4374 8.6671 11.5001 8.38987 11.5001 8.07845C11.5001 7.79362 11.4374 7.52588 11.3121 7.27523C11.1906 7.02458 10.9969 6.8233 10.731 6.67139C10.4652 6.51568 10.1177 6.43783 9.68856 6.43783H7.72892V13.832H6.62948V5.53776H9.68856C10.3152 5.53776 10.845 5.646 11.2779 5.86247C11.7109 6.07894 12.0394 6.37896 12.2634 6.76253C12.4875 7.14231 12.5995 7.57715 12.5995 8.06706C12.5995 8.59874 12.4875 9.05257 12.2634 9.42855C12.0394 9.80452 11.7109 10.0913 11.2779 10.2887C10.845 10.4824 10.3152 10.5793 9.68856 10.5793Z" fill="#555555"/>
</svg>
