<svg width="19" height="18" viewBox="0 0 19 18" fill="none" xmlns="http://www.w3.org/2000/svg">
<path d="M5.93872 14.1944L3.67444 16.0979C3.59245 16.1668 3.49248 16.2109 3.38628 16.2249C3.28009 16.239 3.17209 16.2224 3.07499 16.1772C2.97789 16.132 2.89572 16.06 2.83815 15.9696C2.78057 15.8793 2.74998 15.7744 2.74998 15.6673V4.5C2.74998 4.35082 2.80925 4.20774 2.91474 4.10225C3.02023 3.99676 3.1633 3.9375 3.31248 3.9375H15.6875C15.8367 3.9375 15.9797 3.99676 16.0852 4.10225C16.1907 4.20774 16.25 4.35082 16.25 4.5V13.5C16.25 13.6492 16.1907 13.7923 16.0852 13.8977C15.9797 14.0032 15.8367 14.0625 15.6875 14.0625H6.30068C6.16826 14.0625 6.04008 14.1092 5.93872 14.1944Z" stroke="#555555" stroke-width="1.2" stroke-linecap="round" stroke-linejoin="round"/>
</svg>
